<svg width="32" height="32" viewBox="0 0 32 32" fill="none" xmlns="http://www.w3.org/2000/svg">
  <defs>
    <radialGradient id="coinGrad" cx="0" cy="0" r="1" gradientUnits="userSpaceOnUse" gradientTransform="translate(10 10) rotate(0) scale(20)">
      <stop offset="0%" stop-color="#F4C430" />
      <stop offset="50%" stop-color="#D4AF37" />
      <stop offset="100%" stop-color="#AA6C39" />
    </radialGradient>
    <linearGradient id="innerGrad" x1="0" y1="0" x2="32" y2="32">
      <stop offset="0%" stop-color="#E5C15D" />
      <stop offset="100%" stop-color="#B8860B" />
    </linearGradient>
  </defs>
  
  <!-- Outer Coin Body -->
  <circle cx="16" cy="16" r="15" fill="url(#coinGrad)" stroke="#8B5A2B" stroke-width="1" />
  
  <!-- Inner Ring Background -->
  <circle cx="16" cy="16" r="12" fill="url(#innerGrad)" stroke="#8B5A2B" stroke-opacity="0.3" stroke-width="1" />
  
  <!-- King Profile -->
  <path d="M16 6C14 6 12.5 7 12.5 8C12.5 8.7 13.2 9.3 14 9.3V10.7C14 11.4 14.6 12 15.3 12H16.7C17.4 12 18 11.4 18 10.7V9.3C18.8 9.3 19.5 8.7 19.5 8C19.5 7 18 6 16 6ZM14 13.3C12.9 13.3 10.7 13.9 10.7 15V16H21.3V15C21.3 13.9 19.1 13.3 18 13.3H14Z" fill="#5D3A1A" transform="translate(0, 4) scale(1.0)" />
</svg>